<svg fill="none" height="731" viewBox="0 0 1440 731" width="1440" xmlns="http://www.w3.org/2000/svg"><g fill="#042119" opacity=".4"><path d="m23.6631 387.408c161.5189-35.48 293.4109-167.927 303.8439-348.1613.788-13.2859-11.91-26.6233-24.607-25.7478-222.7891 14.9852-446.218 16.427-669.205 4.4285-24.311-1.2874-29.872 28.7346-16.88 43.5139 3.445 160.9237 151.922 317.3157 306.5018 320.8177-57.7768 111.951-144.7368 203.202-225.7418 297.336-13.977 16.221-4.725 43.925 17.421 43.977 167.424.206 335.144 17.302 502.224-1.082 16.142-1.75 33.76-21.473 21.26-38.724-71.606-98.769-143.2113-197.537-214.8169-296.306z"/><path d="m1062.7 730.852h-13.61c-.53-.099-1.07-.296-1.56-.296-13.07-.692-25.89-3.012-38.51-6.419-29.365-7.901-56.23-21.331-81.824-37.625-33.178-21.183-63.958-45.526-93.222-71.942-25.838-23.355-48.691-49.377-67.042-79.2-16.736-27.207-28.872-56.29-34.254-88.039-.881-5.086-1.566-10.221-2.398-15.751-.245.592-.343.839-.392 1.037-.342 1.876-.685 3.752-.978 5.678-3.915 22.713-9.983 44.735-19.77 65.622-15.807 33.625-38.219 62.461-63.763 88.976-17.079 17.727-35.479 33.972-54.661 49.427-46.978 37.822-98.801 65.424-158.405 76.731-1.077.197-2.202.444-2.74 1.58-2.741 5.876-7.781 8.69-13.702 10.221h-7.634c-1.321-.346-2.643-.642-3.915-1.086-6.998-2.37-11.94-6.913-13.995-14.122-.93-3.308-1.615-6.814-1.713-10.221-.294-9.974-1.468-19.85-2.154-29.774-1.468-20.492-3.033-40.983-4.355-61.474-1.223-19.158-2.3-38.267-3.278-57.425-.832-16.492-1.566-33.033-2.202-49.525-.636-16.541-1.175-33.033-1.566-49.574-.392-14.912-.49-29.774-.734-44.686 0-1.086-.196-2.173-.343-3.259 0-41.921 0-83.792 0-125.713.098-.79.294-1.63.294-2.42 0-17.281.489-34.514 1.076-51.796.539-14.714.832-29.428 1.273-44.093.146-4.938.342-9.875.587-14.764.832-16.59 1.663-33.181 2.495-49.771.588-11.209 1.126-22.4174 1.811-33.6259 1.126-17.1337 2.496-34.2181 3.572-51.3519.783-12.4923 6.215-19.4543 18.204-22.7132h10.326c.636.0988 1.223.2963 1.859.3457 13.849.5431 27.355 2.9625 40.715 6.5177 30.095 8.0977 57.548 22.022 83.68 38.8101 30.046 19.3063 57.988 41.4275 84.903 64.9305 26.572 23.207 50.306 49.08 69.586 78.854 18.987 29.231 32.64 60.684 38.414 95.347.392 2.419.783 4.888 1.126 7.308.342 2.419.685 4.789 1.126 7.85.293-.938.391-1.185.44-1.431 3.034-20.047 7.683-39.65 15.121-58.512 12.87-32.638 32.542-60.931 55.542-87.002 21.042-23.849 44.482-45.13 69.195-64.979 46.733-37.5266 98.409-64.7826 157.575-76.1392 1.07-.1975 2.2-.4444 2.74-1.5307 3.03-6.3696 8.46-9.2334 15.07-10.3691h5.43c.69.1481 1.42.2963 2.11.4938 8.51 2.0244 14.58 6.8634 16.88 15.6031.88 3.4069 1.47 7.0114 1.61 10.5666.49 14.3686 2.21 28.5891 3.09 42.9083 1.22 20.0472 2.88 40.0942 4.16 60.1412 1.02 16.393 1.9 32.835 2.69 49.278.83 17.232 1.56 34.514 2.2 51.746.64 16.887 1.22 33.774 1.52 50.71.34 18.27.98 36.539.78 54.858 0 1.382-.1 2.765.34 4.098v87.298c-.1.987-.34 1.975-.34 2.963 0 20.195-.44 40.39-1.03 60.585-.34 12.245-.73 24.491-1.07 36.736-.59 18.072-1.38 36.144-2.21 54.216-.78 17.084-1.61 34.119-2.74 51.203-1.32 20.442-2.64 40.835-3.91 61.277-.64 10.468-5.39 19.898-17.52 22.861z"/><path d="m1757.64 359.169c-5.93-67.77-19.19-224.96-66.82-282.8408-45.16-54.8755-111.75-87.1124-193.58-92.8811-44.8-3.151-91.47-.8241-135.96 3.7812-40.13 4.16896-78.15 13.91274-110.95 33.3518-82.72 64.4074-91.28 179.9269-101.45 237.6139 0 0-6 83.96-4.12 127.152 1.88 42.126 1.45 84.349 1.03 126.476-.85 90.845-1.76 94.355-2.6 185.2-10.48 9.453-5.21 29.28 15.79 29.958 99.82 3.345 199.7 4.654 299.52 3.733 51.33-.485 102.72-1.503 154.05-3.151 22.82-.727 45.64-1.551 68.4-2.521 19.01-.775 42.73.921 58.23-9.647 14.47-9.84 12.23-24.044 11.44-37.569-1.21-21.33.73-42.465 4.6-63.553 6.72-36.696 2.66 13.311 4.06-23.918 2.9-77.175 5.2-154.35-1.58-231.282z"/></g></svg>